<?xml version="1.0" encoding="UTF-8"?>
<svg xmlns="http://www.w3.org/2000/svg" xmlns:xlink="http://www.w3.org/1999/xlink" width="4001" height="4001" viewBox="0 0 4001 4001">
<path fill-rule="evenodd" fill="rgb(19.993591%, 19.993591%, 19.993591%)" fill-opacity="1" d="M 1 0 L 4001 0 L 4001 4000 L 1 4000 L 1 0 "/>
<path fill-rule="nonzero" fill="rgb(100%, 100%, 100%)" fill-opacity="1" d="M 1858.429688 2652.121094 L 1731.011719 2652.121094 C 1720.941406 2652.121094 1715.898438 2649.238281 1715.898438 2643.480469 C 1715.898438 2639.160156 1717.699219 2634.121094 1721.300781 2628.359375 L 1724.539062 2621.890625 C 1726.699219 2618.289062 1728.859375 2615.050781 1731.011719 2612.171875 C 1733.179688 2609.289062 1735.691406 2606.050781 1738.570312 2602.449219 C 1763.769531 2564.300781 1789.511719 2526.5 1815.78125 2489.070312 C 1842.058594 2451.640625 1868.511719 2413.851562 1895.148438 2375.691406 L 1738.570312 2152.171875 C 1736.410156 2148.570312 1734.441406 2145.148438 1732.640625 2141.910156 C 1730.839844 2138.671875 1729.941406 2135.96875 1729.941406 2133.820312 C 1729.941406 2126.621094 1736.769531 2123.019531 1750.449219 2123.019531 L 1847.628906 2123.019531 C 1862.75 2123.019531 1874.269531 2125.179688 1882.191406 2129.5 C 1890.109375 2133.820312 1898.75 2143.53125 1908.101562 2158.648438 C 1921.058594 2178.808594 1933.480469 2198.960938 1945.359375 2219.121094 C 1957.230469 2239.28125 1969.289062 2259.429688 1981.53125 2279.589844 C 1988.730469 2269.511719 1995.929688 2258.710938 2003.128906 2247.191406 C 2010.320312 2235.679688 2017.519531 2223.800781 2024.71875 2211.558594 C 2030.480469 2201.480469 2036.421875 2191.21875 2042.539062 2180.789062 C 2048.660156 2170.351562 2054.78125 2160.808594 2060.898438 2152.171875 C 2067.019531 2143.53125 2073.488281 2136.519531 2080.328125 2131.121094 C 2087.171875 2125.71875 2094.191406 2123.019531 2101.390625 2123.019531 L 2216.929688 2123.019531 C 2229.878906 2123.019531 2236.359375 2126.621094 2236.359375 2133.820312 C 2236.359375 2135.25 2235.640625 2137.421875 2234.210938 2140.300781 C 2232.761719 2143.171875 2231.328125 2146.050781 2229.878906 2148.929688 C 2214.769531 2170.53125 2200.910156 2189.789062 2188.308594 2206.699219 C 2175.710938 2223.621094 2163.480469 2240.539062 2151.601562 2257.449219 C 2139.71875 2274.371094 2127.300781 2292.191406 2114.351562 2310.898438 C 2101.390625 2329.621094 2086.269531 2351.21875 2068.988281 2375.691406 L 2237.441406 2620.808594 C 2241.039062 2625.851562 2243.378906 2629.988281 2244.460938 2633.21875 C 2245.539062 2636.460938 2246.441406 2639.519531 2247.160156 2642.398438 C 2247.160156 2648.878906 2241.761719 2652.121094 2230.960938 2652.121094 L 2104.628906 2652.121094 C 2094.550781 2652.121094 2087.171875 2649.058594 2082.488281 2642.941406 C 2077.808594 2636.820312 2071.511719 2628.730469 2063.589844 2618.648438 C 2049.921875 2596.328125 2036.238281 2574.378906 2022.558594 2552.78125 C 2008.890625 2531.179688 1995.210938 2509.230469 1981.53125 2486.910156 L 1890.828125 2631.609375 C 1881.46875 2645.28125 1870.671875 2652.121094 1858.429688 2652.121094 "/>
<path fill-rule="nonzero" fill="rgb(100%, 100%, 100%)" fill-opacity="1" d="M 2409.789062 2555.308594 C 2393.820312 2565.058594 2372.960938 2560.011719 2363.21875 2544.03125 C 2353.46875 2528.058594 2358.519531 2507.199219 2374.5 2497.460938 C 2461.859375 2443.898438 2532.21875 2369.480469 2580.761719 2282.789062 C 2629.238281 2196.210938 2655.871094 2097.320312 2655.871094 1994.691406 C 2655.871094 1831.859375 2589.871094 1684.441406 2483.160156 1577.730469 C 2376.460938 1471.019531 2229.03125 1405.019531 2066.199219 1405.019531 C 1903.359375 1405.019531 1755.941406 1471.019531 1649.230469 1577.730469 C 1542.519531 1684.441406 1476.519531 1831.859375 1476.519531 1994.691406 C 1476.519531 2013.449219 1461.308594 2028.660156 1442.550781 2028.660156 C 1423.789062 2028.660156 1408.578125 2013.449219 1408.578125 1994.691406 C 1408.578125 1813.101562 1482.191406 1648.691406 1601.191406 1529.691406 C 1720.191406 1410.691406 1884.609375 1337.078125 2066.199219 1337.078125 C 2247.789062 1337.078125 2412.199219 1410.691406 2531.199219 1529.691406 C 2650.210938 1648.691406 2723.808594 1813.101562 2723.808594 1994.691406 C 2723.808594 2109.011719 2694.078125 2219.28125 2639.941406 2315.960938 C 2585.878906 2412.519531 2507.378906 2495.488281 2409.789062 2555.308594 "/>
<path fill-rule="nonzero" fill="rgb(19.993591%, 19.993591%, 19.993591%)" fill-opacity="1" d="M 1578.371094 2536.578125 C 1594.199219 2537.300781 1609.679688 2535.140625 1624.800781 2530.101562 C 1639.910156 2525.070312 1654.671875 2518.589844 1669.070312 2510.671875 C 1674.828125 2507.789062 1680.230469 2504.550781 1685.269531 2500.949219 C 1690.300781 2497.351562 1694.980469 2495.550781 1699.300781 2495.550781 C 1705.78125 2495.550781 1711.179688 2498.789062 1715.5 2505.269531 L 1755.449219 2568.980469 C 1759.050781 2574.738281 1760.851562 2579.421875 1760.851562 2583.019531 C 1760.851562 2588.769531 1759.050781 2593.628906 1755.449219 2597.589844 C 1751.851562 2601.550781 1747.898438 2605.328125 1743.578125 2608.929688 C 1720.539062 2626.210938 1695.53125 2639.878906 1668.53125 2649.960938 C 1641.53125 2660.039062 1612.558594 2665.078125 1581.609375 2665.078125 C 1544.171875 2665.078125 1508.71875 2657.878906 1475.238281 2643.480469 C 1441.769531 2629.089844 1412.621094 2609.46875 1387.78125 2584.628906 C 1362.949219 2559.800781 1343.148438 2530.460938 1328.390625 2496.628906 C 1313.628906 2462.800781 1306.261719 2426.800781 1306.261719 2388.648438 C 1306.261719 2351.21875 1313.460938 2315.761719 1327.851562 2282.289062 C 1342.25 2248.820312 1361.679688 2219.300781 1386.160156 2193.738281 C 1410.640625 2168.191406 1439.070312 2148.03125 1471.46875 2133.269531 C 1503.859375 2118.519531 1538.410156 2111.140625 1575.128906 2111.140625 C 1609.679688 2111.140625 1642.429688 2117.621094 1673.390625 2130.570312 C 1704.339844 2143.53125 1731.519531 2161.171875 1754.910156 2183.488281 C 1778.308594 2205.800781 1796.671875 2231.898438 1809.980469 2261.769531 C 1823.300781 2291.648438 1829.960938 2323.5 1829.960938 2357.328125 C 1829.960938 2385.410156 1827.621094 2405.75 1822.941406 2418.339844 C 1818.261719 2430.941406 1808 2437.238281 1792.171875 2437.238281 L 1456.351562 2437.238281 C 1457.789062 2453.078125 1462.46875 2467.121094 1470.390625 2479.351562 C 1478.300781 2491.589844 1488.019531 2502.03125 1499.539062 2510.671875 C 1511.058594 2519.308594 1523.839844 2525.78125 1537.871094 2530.101562 C 1551.910156 2534.421875 1565.410156 2536.578125 1578.371094 2536.578125 Z M 1456.351562 2332.5 L 1688.511719 2332.5 C 1687.070312 2305.5 1675.371094 2282.289062 1653.410156 2263.03125 C 1631.460938 2243.78125 1604.28125 2234.238281 1571.890625 2234.238281 C 1558.929688 2234.238281 1545.96875 2236.761719 1533.011719 2241.800781 C 1520.058594 2246.660156 1508.179688 2253.671875 1497.378906 2262.488281 C 1486.578125 2271.488281 1477.578125 2281.929688 1470.390625 2293.988281 C 1463.191406 2306.21875 1458.511719 2319 1456.351562 2332.5 "/>
<path fill-rule="nonzero" fill="rgb(100%, 100%, 100%)" fill-opacity="1" d="M 1560.140625 2536.578125 C 1575.96875 2537.300781 1591.449219 2535.140625 1606.570312 2530.101562 C 1621.679688 2525.070312 1636.441406 2518.589844 1650.839844 2510.671875 C 1656.601562 2507.789062 1662 2504.550781 1667.03125 2500.949219 C 1672.070312 2497.351562 1676.75 2495.550781 1681.070312 2495.550781 C 1687.550781 2495.550781 1692.949219 2498.789062 1697.269531 2505.269531 L 1737.21875 2568.980469 C 1740.820312 2574.738281 1742.621094 2579.421875 1742.621094 2583.019531 C 1742.621094 2588.769531 1740.820312 2593.628906 1737.21875 2597.589844 C 1733.621094 2601.550781 1729.660156 2605.328125 1725.351562 2608.929688 C 1702.308594 2626.210938 1677.289062 2639.878906 1650.300781 2649.960938 C 1623.300781 2660.039062 1594.328125 2665.078125 1563.371094 2665.078125 C 1525.941406 2665.078125 1490.488281 2657.878906 1457.011719 2643.480469 C 1423.539062 2629.089844 1394.378906 2609.46875 1369.550781 2584.628906 C 1344.710938 2559.800781 1324.921875 2530.460938 1310.160156 2496.628906 C 1295.398438 2462.800781 1288.019531 2426.800781 1288.019531 2388.648438 C 1288.019531 2351.21875 1295.21875 2315.761719 1309.621094 2282.289062 C 1324.019531 2248.820312 1343.449219 2219.300781 1367.929688 2193.738281 C 1392.398438 2168.191406 1420.839844 2148.03125 1453.230469 2133.269531 C 1485.628906 2118.519531 1520.179688 2111.140625 1556.890625 2111.140625 C 1591.449219 2111.140625 1624.199219 2117.621094 1655.160156 2130.570312 C 1686.109375 2143.53125 1713.289062 2161.171875 1736.679688 2183.488281 C 1760.078125 2205.800781 1778.429688 2231.898438 1791.75 2261.769531 C 1805.070312 2291.648438 1811.730469 2323.5 1811.730469 2357.328125 C 1811.730469 2385.410156 1809.390625 2405.75 1804.710938 2418.339844 C 1800.03125 2430.941406 1789.769531 2437.238281 1773.941406 2437.238281 L 1438.121094 2437.238281 C 1439.558594 2453.078125 1444.238281 2467.121094 1452.148438 2479.351562 C 1460.070312 2491.589844 1469.789062 2502.03125 1481.308594 2510.671875 C 1492.828125 2519.308594 1505.601562 2525.78125 1519.640625 2530.101562 C 1533.679688 2534.421875 1547.179688 2536.578125 1560.140625 2536.578125 Z M 1438.121094 2332.5 L 1670.28125 2332.5 C 1668.828125 2305.5 1657.140625 2282.289062 1635.179688 2263.03125 C 1613.230469 2243.78125 1586.050781 2234.238281 1553.660156 2234.238281 C 1540.699219 2234.238281 1527.738281 2236.761719 1514.78125 2241.800781 C 1501.820312 2246.660156 1489.949219 2253.671875 1479.148438 2262.488281 C 1468.351562 2271.488281 1459.351562 2281.929688 1452.148438 2293.988281 C 1444.949219 2306.21875 1440.28125 2319 1438.121094 2332.5 "/>
</svg>
